<?xml version="1.0" encoding="UTF-8"?>
<svg xmlns="http://www.w3.org/2000/svg" viewBox="0 0 24 24">
  <path d="M6 2 H14.5 L19 6.5 V21 A1 1 0 0 1 18 22 H6 A1 1 0 0 1 5 21 V3 A1 1 0 0 1 6 2 Z" fill="#F5A623" fill-opacity="0.16" stroke="#F5A623" stroke-width="1.4"/>
  <path d="M14.5 2 V6.5 H19 Z" fill="#F5A623" fill-opacity="0.4" stroke="#F5A623" stroke-width="1.4" stroke-linejoin="round"/>
  <g transform="translate(6.4,8.6) scale(0.48)" fill="none" stroke="#F5A623" stroke-width="1.7" stroke-linecap="round" stroke-linejoin="round"><path d="M12 3.5 L21 20.2 H3 Z"/>
    <line x1="12" y1="9" x2="12" y2="14.2"/>
    <circle cx="12" cy="17.2" r="0.9" fill="#F5A623" stroke="none"/></g>
  <circle cx="18" cy="19" r="4.2" fill="#FAFAF8"/>
  <circle cx="18" cy="19" r="3.9" fill="#14E0B4"/>
  <path d="M16.2 19 L17.4 20.3 L19.9 17.5" stroke="#0B0E14" stroke-width="1.3" fill="none" stroke-linecap="round" stroke-linejoin="round"/>
</svg>
