<?xml version="1.0" encoding="UTF-8"?>
<svg xmlns="http://www.w3.org/2000/svg" viewBox="0 0 24 24">
  <path d="M6 2 H14.5 L19 6.5 V21 A1 1 0 0 1 18 22 H6 A1 1 0 0 1 5 21 V3 A1 1 0 0 1 6 2 Z" fill="#65A30D" fill-opacity="0.16" stroke="#65A30D" stroke-width="1.4"/>
  <path d="M14.5 2 V6.5 H19 Z" fill="#65A30D" fill-opacity="0.4" stroke="#65A30D" stroke-width="1.4" stroke-linejoin="round"/>
  <g transform="translate(6.4,8.6) scale(0.48)" fill="none" stroke="#65A30D" stroke-width="1.7" stroke-linecap="round" stroke-linejoin="round"><ellipse cx="12" cy="6.2" rx="7.2" ry="2.6"/>
    <path d="M4.8 6.2 V17.6 C4.8 19 8 20.4 12 20.4 C16 20.4 19.2 19 19.2 17.6 V6.2"/>
    <path d="M4.8 12 C4.8 13.4 8 14.8 12 14.8 C16 14.8 19.2 13.4 19.2 12"/></g>
  <circle cx="18" cy="19" r="4.2" fill="#FAFAF8"/>
  <circle cx="18" cy="19" r="3.9" fill="#14E0B4"/>
  <path d="M16.2 19 L17.4 20.3 L19.9 17.5" stroke="#0B0E14" stroke-width="1.3" fill="none" stroke-linecap="round" stroke-linejoin="round"/>
</svg>
